HIERARCHY
ROOT mixamorig:Hips
{
	OFFSET 0.00 0.00 0.00
	CHANNELS 6 Xposition Yposition Zposition Zrotation Yrotation Xrotation
	JOINT mixamorig:Spine
	{
		OFFSET	0.0000	9.9235	-1.2273
		CHANNELS 3 Zrotation Yrotation Xrotation
		JOINT mixamorig:Spine1
		{
			OFFSET	-0.0001	11.6455	-1.4224
			CHANNELS 3 Zrotation Yrotation Xrotation
			JOINT mixamorig:Spine2
			{
				OFFSET	0.0001	13.3602	-1.6265
				CHANNELS 3 Zrotation Yrotation Xrotation
				JOINT mixamorig:Neck
				{
					OFFSET	0.0000	15.0325	0.7929
					CHANNELS 3 Zrotation Yrotation Xrotation
					JOINT mixamorig:Head
					{
						OFFSET	-0.0000	10.3218	3.1424
						CHANNELS 3 Zrotation Yrotation Xrotation
						JOINT mixamorig:HeadTop_End
						{
							OFFSET	0.0002	18.4747	6.6364
							CHANNELS 3 Zrotation Yrotation Xrotation
							End Site
							{
								OFFSET 0.0000 0.0000 0.0000
							}
						}
						JOINT mixamorig:LeftEye
						{
							OFFSET	2.9479	7.6817	9.1207
							CHANNELS 3 Zrotation Yrotation Xrotation
							End Site
							{
								OFFSET 0.0000 0.0000 0.0000
							}
						}
						JOINT mixamorig:RightEye
						{
							OFFSET	-2.9445	7.6817	9.1205
							CHANNELS 3 Zrotation Yrotation Xrotation
							End Site
							{
								OFFSET 0.0000 0.0000 0.0000
							}
						}
					}
				}
				JOINT mixamorig:LeftShoulder
				{
					OFFSET	6.1059	9.1104	0.7056
					CHANNELS 3 Zrotation Yrotation Xrotation
					JOINT mixamorig:LeftArm
					{
						OFFSET	12.6532	-0.3431	-2.6009
						CHANNELS 3 Zrotation Yrotation Xrotation
						JOINT mixamorig:LeftForeArm
						{
							OFFSET	27.3517	-0.9645	-1.4034
							CHANNELS 3 Zrotation Yrotation Xrotation
							JOINT mixamorig:LeftHand
							{
								OFFSET	27.5619	-0.7072	1.5500
								CHANNELS 3 Zrotation Yrotation Xrotation
								JOINT mixamorig:LeftHandMiddle1
								{
									OFFSET	12.6630	-1.3962	0.9548
									CHANNELS 3 Zrotation Yrotation Xrotation
									JOINT mixamorig:LeftHandMiddle2
									{
										OFFSET	3.6093	-0.1669	0.0778
										CHANNELS 3 Zrotation Yrotation Xrotation
										JOINT mixamorig:LeftHandMiddle3
										{
											OFFSET	3.4004	-0.6274	0.1148
											CHANNELS 3 Zrotation Yrotation Xrotation
											End Site
											{
												OFFSET 3.6205 -0.6493 0.1199
											}
										}
									}
								}
								JOINT mixamorig:LeftHandThumb1
								{
									OFFSET	3.3268	-2.0474	3.5790
									CHANNELS 3 Zrotation Yrotation Xrotation
									JOINT mixamorig:LeftHandThumb2
									{
										OFFSET	3.4890	-1.4806	2.8548
										CHANNELS 3 Zrotation Yrotation Xrotation
										JOINT mixamorig:LeftHandThumb3
										{
											OFFSET	3.4086	-1.7658	2.1133
											CHANNELS 3 Zrotation Yrotation Xrotation
											End Site
											{
												OFFSET 2.7231 -1.1597 1.7903
											}
										}
									}
								}
								JOINT mixamorig:LeftHandIndex1
								{
									OFFSET	11.9722	-1.1061	3.7324
									CHANNELS 3 Zrotation Yrotation Xrotation
									JOINT mixamorig:LeftHandIndex2
									{
										OFFSET	3.8387	-0.6406	-0.0310
										CHANNELS 3 Zrotation Yrotation Xrotation
										JOINT mixamorig:LeftHandIndex3
										{
											OFFSET	3.3346	-0.7374	-0.0133
											CHANNELS 3 Zrotation Yrotation Xrotation
											End Site
											{
												OFFSET 2.9714 -0.8030 0.0009
											}
										}
									}
								}
								JOINT mixamorig:LeftHandRing1
								{
									OFFSET	12.1659	-1.6805	-1.2769
									CHANNELS 3 Zrotation Yrotation Xrotation
									JOINT mixamorig:LeftHandRing2
									{
										OFFSET	3.5925	-0.2366	-0.0771
										CHANNELS 3 Zrotation Yrotation Xrotation
										JOINT mixamorig:LeftHandRing3
										{
											OFFSET	3.2906	-0.3266	-0.0615
											CHANNELS 3 Zrotation Yrotation Xrotation
											End Site
											{
												OFFSET 3.5423 -0.9211 -0.0200
											}
										}
									}
								}
								JOINT mixamorig:LeftHandPinky1
								{
									OFFSET	11.0508	-2.1872	-3.8040
									CHANNELS 3 Zrotation Yrotation Xrotation
									JOINT mixamorig:LeftHandPinky2
									{
										OFFSET	4.1236	-0.3047	0.1212
										CHANNELS 3 Zrotation Yrotation Xrotation
										JOINT mixamorig:LeftHandPinky3
										{
											OFFSET	2.5805	-0.2597	0.0823
											CHANNELS 3 Zrotation Yrotation Xrotation
											End Site
											{
												OFFSET 2.9027 -0.3379 0.0963
											}
										}
									}
								}
							}
						}
					}
				}
				JOINT mixamorig:RightShoulder
				{
					OFFSET	-6.1057	9.1105	0.7056
					CHANNELS 3 Zrotation Yrotation Xrotation
					JOINT mixamorig:RightArm
					{
						OFFSET	-12.6532	-0.3429	-2.6009
						CHANNELS 3 Zrotation Yrotation Xrotation
						JOINT mixamorig:RightForeArm
						{
							OFFSET	-27.3518	-0.9642	-1.4034
							CHANNELS 3 Zrotation Yrotation Xrotation
							JOINT mixamorig:RightHand
							{
								OFFSET	-27.5619	-0.7068	1.5501
								CHANNELS 3 Zrotation Yrotation Xrotation
								JOINT mixamorig:RightHandMiddle1
								{
									OFFSET	-12.6630	-1.3960	0.9549
									CHANNELS 3 Zrotation Yrotation Xrotation
									JOINT mixamorig:RightHandMiddle2
									{
										OFFSET	-3.6093	-0.1669	0.0778
										CHANNELS 3 Zrotation Yrotation Xrotation
										JOINT mixamorig:RightHandMiddle3
										{
											OFFSET	-3.4004	-0.6273	0.1148
											CHANNELS 3 Zrotation Yrotation Xrotation
											End Site
											{
												OFFSET -3.6205 -0.6492 0.1199
											}
										}
									}
								}
								JOINT mixamorig:RightHandThumb1
								{
									OFFSET	-3.3269	-2.0474	3.5790
									CHANNELS 3 Zrotation Yrotation Xrotation
									JOINT mixamorig:RightHandThumb2
									{
										OFFSET	-3.4890	-1.4805	2.8548
										CHANNELS 3 Zrotation Yrotation Xrotation
										JOINT mixamorig:RightHandThumb3
										{
											OFFSET	-3.4086	-1.7658	2.1133
											CHANNELS 3 Zrotation Yrotation Xrotation
											End Site
											{
												OFFSET -2.7231 -1.1596 1.7903
											}
										}
									}
								}
								JOINT mixamorig:RightHandIndex1
								{
									OFFSET	-11.9722	-1.1059	3.7324
									CHANNELS 3 Zrotation Yrotation Xrotation
									JOINT mixamorig:RightHandIndex2
									{
										OFFSET	-3.8387	-0.6406	-0.0310
										CHANNELS 3 Zrotation Yrotation Xrotation
										JOINT mixamorig:RightHandIndex3
										{
											OFFSET	-3.3346	-0.7373	-0.0133
											CHANNELS 3 Zrotation Yrotation Xrotation
											End Site
											{
												OFFSET -2.9715 -0.8029 0.0009
											}
										}
									}
								}
								JOINT mixamorig:RightHandRing1
								{
									OFFSET	-12.1659	-1.6803	-1.2769
									CHANNELS 3 Zrotation Yrotation Xrotation
									JOINT mixamorig:RightHandRing2
									{
										OFFSET	-3.5925	-0.2366	-0.0771
										CHANNELS 3 Zrotation Yrotation Xrotation
										JOINT mixamorig:RightHandRing3
										{
											OFFSET	-3.2906	-0.3265	-0.0615
											CHANNELS 3 Zrotation Yrotation Xrotation
											End Site
											{
												OFFSET -3.5423 -0.9210 -0.0200
											}
										}
									}
								}
								JOINT mixamorig:RightHandPinky1
								{
									OFFSET	-11.0508	-2.1870	-3.8040
									CHANNELS 3 Zrotation Yrotation Xrotation
									JOINT mixamorig:RightHandPinky2
									{
										OFFSET	-4.1236	-0.3046	0.1212
										CHANNELS 3 Zrotation Yrotation Xrotation
										JOINT mixamorig:RightHandPinky3
										{
											OFFSET	-2.5805	-0.2597	0.0823
											CHANNELS 3 Zrotation Yrotation Xrotation
											End Site
											{
												OFFSET -2.9027 -0.3379 0.0963
											}
										}
									}
								}
							}
						}
					}
				}
			}
		}
	}
	JOINT mixamorig:RightUpLeg
	{
		OFFSET	-9.1245	-6.6564	-0.0554
		CHANNELS 3 Zrotation Yrotation Xrotation
		JOINT mixamorig:RightLeg
		{
			OFFSET	0.0000	-40.5610	-1.7662
			CHANNELS 3 Zrotation Yrotation Xrotation
			JOINT mixamorig:RightFoot
			{
				OFFSET	0.4978	-41.9625	-3.3512
				CHANNELS 3 Zrotation Yrotation Xrotation
				JOINT mixamorig:RightToeBase
				{
					OFFSET	-0.3734	-10.4922	12.6406
					CHANNELS 3 Zrotation Yrotation Xrotation
					End Site
					{
						OFFSET 0.0000 0.0000 9.9925
					}
				}
			}
		}
	}
	JOINT mixamorig:LeftUpLeg
	{
		OFFSET	9.1245	-6.6564	-0.0554
		CHANNELS 3 Zrotation Yrotation Xrotation
		JOINT mixamorig:LeftLeg
		{
			OFFSET	-0.0000	-40.5610	-1.7662
			CHANNELS 3 Zrotation Yrotation Xrotation
			JOINT mixamorig:LeftFoot
			{
				OFFSET	-0.4978	-41.9625	-3.3512
				CHANNELS 3 Zrotation Yrotation Xrotation
				JOINT mixamorig:LeftToeBase
				{
					OFFSET	0.3734	-10.4922	12.6406
					CHANNELS 3 Zrotation Yrotation Xrotation
					End Site
					{
						OFFSET -0.0000 0.0000 9.9925
					}
				}
			}
		}
	}
}
MOTION
Frames: 4
Frame Time: 0.0333333
0.0523 82.8938 0.0056 -2.7148 -13.7658 9.9226 2.0990 -3.5548 8.8675 -0.1359 -0.9862 3.3698 -0.1456 -1.0031 3.3618 1.5444 3.5595 4.3143 11.9080 16.6237 -0.7890 0.0000 -0.0000 0.0000 0.0000 -0.0000 0.0000 0.0000 -0.0000 0.0000 12.9816 -10.9719 -0.7286 31.0573 -63.2649 -96.1245 -0.4052 -24.1208 -0.6578 -26.5613 4.2070 -120.5767 -56.4331 -4.9784 2.7749 -57.3055 -2.1266 2.4889 -18.1751 -1.0173 0.5736 -3.8737 9.9024 10.3546 10.1445 -9.1883 13.1719 0.6108 -7.6517 -2.0411 -33.8206 -6.4671 0.6929 -57.2184 -2.8286 0.5577 -21.5748 -1.0504 -0.0940 -64.0616 -8.6750 2.8915 -70.2070 -3.8451 0.7270 -16.9118 -0.7411 -0.2249 -74.8318 -13.3525 3.2042 -62.6547 -2.1714 3.1026 -13.1906 -0.7145 0.4307 1.5455 4.9500 0.8180 84.3060 64.6240 28.9157 -170.0660 79.2168 -172.2128 -21.7971 -45.1443 2.1628 55.6537 1.5150 3.3950 102.7374 3.1547 6.5858 19.0793 1.4530 0.6051 17.0970 -4.9081 13.6430 -23.1255 -7.7074 20.7474 -35.0231 -48.1138 34.8965 8.7923 8.3556 -0.9495 29.9023 2.1934 -0.0233 27.1161 1.9607 -0.0565 59.7516 12.7211 2.9457 97.7587 5.9859 3.4127 41.4214 3.1932 0.0999 66.8322 10.7816 3.6334 81.0646 3.3562 5.1857 58.9000 3.2536 3.3787 7.8852 7.9970 -34.3251 -4.9834 2.8336 67.1853 11.9504 -14.1191 -43.0583 0.0000 -0.0000 -6.1501 -0.2175 10.6077 -47.2997 3.9793 1.0299 103.7103 4.3134 8.9233 -17.0397 -0.0000 0.0000 -1.2375 
0.0849 83.5025 -0.5790 -1.5225 -13.2659 10.0145 0.9950 -3.7101 8.6226 -0.2606 -1.2196 3.1896 -0.2567 -1.2290 3.1840 1.5361 3.8772 4.0678 11.7533 17.1567 -0.8652 0.0000 -0.0000 0.0000 0.0000 -0.0000 0.0000 0.0000 -0.0000 0.0000 13.8773 -11.9305 -1.7966 28.6871 -62.3496 -93.9957 -0.4714 -17.9630 -0.4758 -26.0786 -0.8923 -119.4673 -54.4076 -4.9461 2.6485 -48.1100 -1.9357 1.9529 -18.2670 -1.0218 0.5773 -3.7884 11.6354 11.0932 10.1445 -9.1883 13.1719 0.6108 -7.6517 -2.0410 -29.7713 -6.6698 0.4181 -54.1584 -2.6986 0.4571 -18.1556 -0.8672 -0.1044 -64.1917 -8.6640 2.9005 -65.4438 -3.6367 0.5308 -17.1260 -0.7538 -0.2264 -76.7769 -13.2027 3.3363 -56.0736 -2.1154 2.6856 -8.3553 -0.4575 0.2541 2.8302 5.3953 1.5439 85.4361 65.8088 31.5692 -163.7931 83.9658 -165.8780 -20.7146 -41.7006 1.5183 53.8651 1.4186 3.2558 102.0572 3.1781 6.5354 18.1992 1.3916 0.5667 17.1035 -5.0803 13.6802 -22.9771 -7.6875 20.8621 -34.9264 -48.0763 34.8914 5.5251 7.7445 -1.0037 17.3567 1.2692 -0.1536 25.3112 1.8286 -0.0816 59.5606 12.5968 2.9383 97.4585 5.9811 3.3892 41.2994 3.1842 0.0962 66.5196 10.6659 3.6164 81.1367 3.3555 5.1916 58.6043 3.2474 3.3549 6.9968 5.6715 -25.2794 -6.3673 3.5268 62.4254 12.4526 -15.9446 -44.7349 0.0000 -0.0000 -11.3437 -2.4237 9.3632 -58.7960 3.0672 0.9051 98.1613 2.5912 11.0085 -20.9264 -0.0000 0.0000 -3.7045 
0.1330 85.0237 -0.8166 -0.3632 -12.0455 10.1563 0.0615 -4.2810 8.4478 -0.1784 -1.7971 3.2104 -0.1463 -1.7909 3.2109 1.4824 4.2471 3.7479 11.5446 17.7868 -1.0350 0.0000 -0.0000 0.0000 0.0000 -0.0000 0.0000 0.0000 -0.0000 0.0000 16.8825 -15.2230 -3.1227 20.9752 -57.8588 -88.6709 -0.5054 -13.5207 -0.3525 -26.2006 -4.9910 -118.5080 -52.2301 -4.9215 2.5127 -37.8071 -1.6232 1.3974 -18.3848 -1.0276 0.5821 -3.6725 13.5726 11.9101 10.1445 -9.1883 13.1719 0.6107 -7.6517 -2.0410 -25.2297 -6.8641 0.1245 -50.7497 -2.5476 0.3534 -14.3356 -0.6622 -0.1030 -64.3964 -8.6581 2.9140 -60.1158 -3.3851 0.3326 -17.3573 -0.7676 -0.2280 -79.0113 -13.0072 3.4882 -48.6412 -1.9953 2.2258 -2.9723 -0.1550 0.0837 3.7424 5.6107 1.9569 90.7210 68.3522 37.8821 -46.8655 88.0400 -48.8591 -18.7346 -37.6809 -0.2101 50.1281 1.3079 2.9644 99.9312 3.2476 6.3761 15.7468 1.2174 0.4649 17.1035 -5.0785 13.6798 -22.9786 -7.6877 20.8609 -34.9274 -48.0767 34.8914 4.1868 6.9394 -0.9257 17.1310 1.2524 -0.1540 19.5951 1.4059 -0.1335 59.1694 12.4246 2.9176 96.3724 5.9626 3.3045 41.0897 3.1686 0.0898 65.7452 10.5459 3.5612 81.0698 3.3562 5.1861 57.8104 3.2302 3.2912 5.4202 1.7157 -14.5694 -8.9040 3.4750 52.5116 13.7398 -15.2152 -40.6799 0.0000 -0.0000 -18.8003 -4.3401 6.4888 -65.8755 3.6058 0.6971 85.4663 2.1629 15.3106 -21.0252 -0.0000 0.0000 -5.8717 
0.1726 87.0072 -0.4382 0.6402 -10.3197 10.2520 -0.5684 -4.9503 8.0160 0.0991 -2.4781 3.2057 0.1660 -2.4530 3.2138 1.3472 4.6596 3.3056 11.2517 18.4200 -1.2924 0.0000 -0.0000 0.0000 0.0000 -0.0000 0.0000 0.0000 -0.0000 0.0000 17.5852 -17.4693 -4.6147 15.7985 -54.7208 -83.1300 -0.5276 -9.4602 -0.2438 -25.1562 -9.4503 -118.2787 -50.1324 -4.8974 2.3827 -27.7461 -1.2268 0.9172 -18.5161 -1.0341 0.5874 -3.5377 15.4682 12.7022 10.1445 -9.1883 13.1719 0.6108 -7.6517 -2.0411 -20.7567 -6.9997 -0.1445 -47.4347 -2.3950 0.2613 -10.5948 -0.4620 -0.0884 -64.6126 -8.6568 2.9278 -54.9279 -3.1235 0.1630 -17.6065 -0.7825 -0.2297 -81.1933 -12.8059 3.6354 -41.3545 -1.8208 1.7938 2.2673 0.1536 -0.0542 4.2449 5.6553 1.9519 94.7027 69.0428 43.1895 -8.8636 82.1557 -10.7752 -16.5258 -32.2893 -2.0488 45.5885 1.1338 2.6211 97.1318 3.3299 6.1626 12.5513 0.9840 0.3436 17.1035 -5.0785 13.6798 -22.9786 -7.6877 20.8609 -34.9274 -48.0767 34.8914 2.1928 6.0109 -0.8534 10.7120 0.7742 -0.1399 12.0906 0.8469 -0.1372 58.7106 12.2309 2.8928 94.8846 5.9347 3.1889 40.8525 3.1510 0.0828 64.7755 10.4255 3.4899 80.8872 3.3581 5.1711 56.8632 3.2085 3.2155 2.6881 -3.0962 -2.8583 -12.5664 0.6797 38.8066 15.8807 -11.6790 -28.3997 0.0000 -0.0000 -28.8312 -4.3411 3.7485 -68.3053 3.3246 0.5932 61.2948 -3.4512 8.6951 -20.0674 -0.0000 0.0000 -2.2039 
